<svg width="1920" height="959" viewBox="0 0 1920 959" fill="none" xmlns="http://www.w3.org/2000/svg">
<path d="M2102.03 168.606C1867.43 83.9038 2098.7 54.8242 1949 39.9825C1799.3 25.1407 1633.44 457.346 1176.4 451.978C743.704 434.464 1176.4 451.978 743.704 434.464C544.865 414.751 -28.4341 1.44046e-05 -28.4341 1.44046e-05L-37.5612 555.135C-37.5612 555.135 194.84 518.307 313.131 589.903C443.548 668.84 454.916 694.814 583.377 777.01C824.1 931.037 897.853 560.094 1176.4 617.966C1371.9 658.586 1544.52 939.194 1743.81 929.341C1922.84 920.492 1989.39 548.271 2167.8 530.911C2383.99 509.875 2595.46 910.199 2809.14 949.738C3143.09 1011.53 3225.87 731.142 3225.87 731.142C3225.87 731.142 3278.78 280.587 3047.16 231.948C2841.19 188.698 2988.63 488.721 2102.03 168.606Z" fill="#8EA076"/>
</svg>
