<svg width="76" height="76" viewBox="0 0 76 76" fill="none" xmlns="http://www.w3.org/2000/svg">
<path d="M12.5998 66.1498C10.8673 66.1498 9.38471 65.5335 8.152 64.3008C6.9193 63.0681 6.3019 61.5844 6.2998 59.8498V25.1998C6.2998 23.4673 6.9172 21.9847 8.152 20.752C9.3868 19.5193 10.8694 18.9019 12.5998 18.8998H25.1998V12.5998C25.1998 10.8673 25.8172 9.38471 27.052 8.152C28.2868 6.9193 29.7694 6.3019 31.4998 6.2998H44.0998C45.8323 6.2998 47.316 6.9172 48.5508 8.152C49.7856 9.3868 50.4019 10.8694 50.3998 12.5998V18.8998H62.9998C64.7323 18.8998 66.216 19.5172 67.4508 20.752C68.6856 21.9868 69.3019 23.4694 69.2998 25.1998V59.8498C69.2998 61.5823 68.6835 63.066 67.4508 64.3008C66.2181 65.5356 64.7344 66.1519 62.9998 66.1498H12.5998ZM31.4998 18.8998H44.0998V12.5998H31.4998V18.8998Z" fill="white"/>
</svg>
