<svg width="43" height="40" viewBox="0 0 43 40" fill="none" xmlns="http://www.w3.org/2000/svg">
<circle cx="20" cy="20" r="20" fill="#2096D4"/>
<path fill-rule="evenodd" clip-rule="evenodd" d="M32.9702 10.6638C33.0353 10.2595 32.9933 9.84476 32.8485 9.46273C32.7037 9.0807 32.4615 8.7454 32.147 8.49175C31.8326 8.23811 31.4574 8.0754 31.0607 8.02059C30.6639 7.96578 30.26 8.02087 29.8911 8.18012L4.36868 19.1781C2.58958 19.9449 2.49853 22.5784 4.36868 23.3727C6.22075 24.1624 8.09954 24.8849 10.0015 25.5387C11.7448 26.1283 13.6463 26.6736 15.1702 26.8279C15.5866 27.3381 16.1105 27.8299 16.6448 28.279C17.4612 28.9664 18.4433 29.6736 19.4582 30.3518C21.4911 31.7113 23.7463 33.0112 25.2657 33.8574C27.0821 34.8656 29.2568 33.7047 29.5821 31.6777L32.9702 10.6638ZM7.22988 21.2601L29.803 11.533L26.6418 31.1461C25.1508 30.3167 23.003 29.0748 21.0896 27.7948C20.2077 27.2153 19.3563 26.5886 18.5388 25.9175C18.3204 25.7348 18.1083 25.5443 17.903 25.3462L23.815 19.2973C24.095 19.0109 24.2524 18.6223 24.2526 18.2171C24.2527 17.8119 24.0956 17.4233 23.8157 17.1366C23.5359 16.85 23.1562 16.6889 22.7603 16.6888C22.3643 16.6886 21.9846 16.8495 21.7045 17.1359L15.2314 23.7606C14.1359 23.6171 12.6105 23.2016 10.9359 22.6364C9.68916 22.2113 8.45388 21.7518 7.23137 21.2586L7.22988 21.2601Z" fill="white"/>
</svg>
