<svg width="75" height="75" viewBox="0 0 75 75" fill="none" xmlns="http://www.w3.org/2000/svg">
<path d="M36.928 2.84683C34.2778 2.8376 31.7208 4.2853 30.6109 7.0124V8.43154L28.9445 8.06533C26.8474 7.60098 25.1664 7.89687 24.0556 8.62827C22.9445 9.35981 22.2723 10.5176 22.2472 12.3545C22.2282 13.752 22.5299 14.6719 22.9523 15.2842C23.3746 15.8965 23.9297 16.2616 24.6963 16.4652C26.2293 16.8724 28.603 16.4129 30.7159 15.1834L31.5901 14.6751L32.3318 15.3575C33.563 16.4918 34.4573 16.9791 35.3435 17.1519C36.23 17.3248 37.2546 17.1985 38.7771 16.7308L40.2188 16.2866L40.521 17.7651C40.9158 19.6925 42.7051 21.1938 44.7874 21.1938C46.7264 21.1938 48.2547 19.8714 48.7883 18.0491L49.1132 16.9458L50.2533 17.0693C51.5504 17.2143 53.0965 16.4768 53.9154 15.5542L54.7943 14.5654L55.815 15.4124C58.5411 17.681 61.0093 17.8968 62.7412 17.0923C64.4727 16.2875 65.6973 14.3674 65.561 11.4113C65.4321 8.65347 63.9541 6.95117 61.8257 6.16543C59.697 5.37969 56.8804 5.63662 54.3137 7.36924L53.2244 8.10635L52.4416 7.04434C51.4107 5.64028 49.9382 4.77603 48.5275 4.5541C47.1172 4.33203 45.8195 4.69004 44.8107 5.78545L43.7258 6.96172L42.7326 5.70781C41.2029 3.77935 39.0392 2.85415 36.928 2.84683ZM9.55392 17.5729C5.53731 29.831 3.77716 42.3437 4.22071 55.1054C10.0142 57.6293 16.1478 57.7575 22.3023 57.7421C22.6547 56.0772 22.9767 54.4061 23.2682 52.7294C18.5658 52.9752 13.8795 53.0986 9.45284 51.3929C9.11153 41.596 10.4661 33.5772 13.5544 23.9959C17.5561 24.9481 21.6125 25.2572 25.7492 25.0897C25.739 23.3737 25.6925 21.7856 25.5983 20.3568C20.1538 20.104 14.8181 19.0909 9.55392 17.5736V17.5729ZM31.2336 18.008C30.2712 18.4899 29.2751 18.8605 28.2761 19.0928C28.729 23.9936 28.5613 30.576 27.9559 37.7101C27.2561 45.9542 25.9247 54.7755 24.0831 62.1317H63.611C62.1562 54.4317 60.8554 45.7826 60.1549 37.7098C59.588 31.174 59.3883 25.0953 59.8575 20.1731C58.2789 19.9854 56.628 19.3467 55.0326 18.2366C53.9343 19.1138 52.5491 19.7227 51.0409 19.8113C49.9482 22.1913 47.6103 23.9312 44.7878 23.9312C41.9103 23.9312 39.3913 22.1939 38.2921 19.6922C37.0821 19.9684 35.9494 20.0595 34.8175 19.8387C33.5621 19.5941 32.4052 18.9578 31.2335 18.0077L31.2336 18.008ZM19.7527 64.8692L17.0246 71.9599H69.5665L66.3849 64.8692H19.753H19.7527Z" fill="white"/>
</svg>
