<svg width="40" height="40" viewBox="0 0 40 40" fill="none" xmlns="http://www.w3.org/2000/svg">
<circle cx="20" cy="20" r="20" fill="#26CC44"/>
<path d="M28.8125 10.1376C27.6663 8.9802 26.3013 8.06253 24.7969 7.43802C23.2925 6.81352 21.6789 6.49467 20.05 6.50007C13.225 6.50007 7.6625 12.0626 7.6625 18.8876C7.6625 21.0751 8.2375 23.2001 9.3125 25.0751L7.5625 31.5001L14.125 29.7751C15.9375 30.7626 17.975 31.2876 20.05 31.2876C26.875 31.2876 32.4375 25.7251 32.4375 18.9001C32.4375 15.5876 31.15 12.4751 28.8125 10.1376ZM20.05 29.1876C18.2 29.1876 16.3875 28.6876 14.8 27.7501L14.425 27.5251L10.525 28.5501L11.5625 24.7501L11.3125 24.3626C10.2844 22.7214 9.73866 20.8242 9.7375 18.8876C9.7375 13.2126 14.3625 8.58757 20.0375 8.58757C22.7875 8.58757 25.375 9.66257 27.3125 11.6126C28.272 12.5674 29.0324 13.7032 29.5495 14.9542C30.0667 16.2052 30.3302 17.5464 30.325 18.9001C30.35 24.5751 25.725 29.1876 20.05 29.1876ZM25.7 21.4876C25.3875 21.3376 23.8625 20.5876 23.5875 20.4751C23.3 20.3751 23.1 20.3251 22.8875 20.6251C22.675 20.9376 22.0875 21.6376 21.9125 21.8376C21.7375 22.0501 21.55 22.0751 21.2375 21.9126C20.925 21.7626 19.925 21.4251 18.75 20.3751C17.825 19.5501 17.2125 18.5376 17.025 18.2251C16.85 17.9126 17 17.7501 17.1625 17.5876C17.3 17.4501 17.475 17.2251 17.625 17.0501C17.775 16.8751 17.8375 16.7376 17.9375 16.5376C18.0375 16.3251 17.9875 16.1501 17.9125 16.0001C17.8375 15.8501 17.2125 14.3251 16.9625 13.7001C16.7125 13.1001 16.45 13.1751 16.2625 13.1626H15.6625C15.45 13.1626 15.125 13.2376 14.8375 13.5501C14.5625 13.8626 13.7625 14.6126 13.7625 16.1376C13.7625 17.6626 14.875 19.1376 15.025 19.3376C15.175 19.5501 17.2125 22.6751 20.3125 24.0126C21.05 24.3376 21.625 24.5251 22.075 24.6626C22.8125 24.9001 23.4875 24.8626 24.025 24.7876C24.625 24.7001 25.8625 24.0376 26.1125 23.3126C26.375 22.5876 26.375 21.9751 26.2875 21.8376C26.2 21.7001 26.0125 21.6376 25.7 21.4876Z" fill="white"/>
</svg>
